<svg width="24" height="23" viewBox="0 0 24 23" fill="none" xmlns="http://www.w3.org/2000/svg">
<path d="M11.7909 0C5.27642 0 0 5.27642 0 11.7909C0 17.0083 3.37514 21.4152 8.06201 22.9775C8.65156 23.0806 8.87264 22.7269 8.87264 22.4174C8.87264 22.1374 8.8579 21.2088 8.8579 20.2214C5.89544 20.7667 5.12903 19.4992 4.89321 18.8359C4.76057 18.4969 4.18576 17.4505 3.68465 17.1705C3.27197 16.9494 2.68242 16.4041 3.66991 16.3893C4.59844 16.3746 5.26168 17.2442 5.48276 17.5979C6.54394 19.3813 8.23888 18.8801 8.91685 18.5706C9.02002 17.8042 9.32953 17.2884 9.66852 16.9936C7.04505 16.6988 4.30367 15.6819 4.30367 11.1719C4.30367 9.8896 4.76057 8.82842 5.51224 8.00306C5.39433 7.70829 4.98165 6.49972 5.63014 4.87848C5.63014 4.87848 6.61763 4.56897 8.87264 6.08704C9.81591 5.82175 10.8181 5.6891 11.8204 5.6891C12.8226 5.6891 13.8248 5.82175 14.7681 6.08704C17.0231 4.55423 18.0106 4.87848 18.0106 4.87848C18.6591 6.49972 18.2464 7.70829 18.1285 8.00306C18.8801 8.82842 19.337 9.87486 19.337 11.1719C19.337 15.6966 16.5809 16.6988 13.9575 16.9936C14.3849 17.3621 14.7533 18.0695 14.7533 19.1749C14.7533 20.7519 14.7386 22.0195 14.7386 22.4174C14.7386 22.7269 14.9597 23.0954 15.5492 22.9775C17.89 22.1875 19.9241 20.6832 21.3651 18.6764C22.8061 16.6696 23.5813 14.2614 23.5818 11.7909C23.5818 5.27642 18.3053 0 11.7909 0Z" fill="#333333"/>
</svg>
