<svg width="2048" height="2048" viewBox="0 0 2048 2048" fill="none" xmlns="http://www.w3.org/2000/svg">
<path d="M1024 0C1118 0 1208.67 12 1296 36C1383.33 60 1465 94.3333 1541 139C1617 183.667 1686 237 1748 299C1810 361 1863.33 430.333 1908 507C1952.67 583.667 1987 665.333 2011 752C2035 838.667 2047.33 929.333 2048 1024C2048 1118 2036 1208.67 2012 1296C1988 1383.33 1953.67 1465 1909 1541C1864.33 1617 1811 1686 1749 1748C1687 1810 1617.67 1863.33 1541 1908C1464.33 1952.67 1382.67 1987 1296 2011C1209.33 2035 1118.67 2047.33 1024 2048C930 2048 839.333 2036 752 2012C664.667 1988 583 1953.67 507 1909C431 1864.33 362 1811 300 1749C238 1687 184.667 1617.67 140 1541C95.3333 1464.33 61 1383 37 1297C13 1211 0.666667 1120 0 1024C0 930 12 839.333 36 752C60 664.667 94.3333 583 139 507C183.667 431 237 362 299 300C361 238 430.333 184.667 507 140C583.667 95.3333 665 61 751 37C837 13 928 0.666667 1024 0ZM1024 1920C1106 1920 1185 1909.33 1261 1888C1337 1866.67 1408.33 1836.67 1475 1798C1541.67 1759.33 1602.33 1712.33 1657 1657C1711.67 1601.67 1758.33 1541.33 1797 1476C1835.67 1410.67 1866 1339.33 1888 1262C1910 1184.67 1920.67 1105.33 1920 1024C1920 942 1909.33 863 1888 787C1866.67 711 1836.67 639.667 1798 573C1759.33 506.333 1712.33 445.667 1657 391C1601.67 336.333 1541.33 289.667 1476 251C1410.67 212.333 1339.33 182 1262 160C1184.67 138 1105.33 127.333 1024 128C942 128 863 138.667 787 160C711 181.333 639.667 211.333 573 250C506.333 288.667 445.667 335.667 391 391C336.333 446.333 289.667 506.667 251 572C212.333 637.333 182 708.667 160 786C138 863.333 127.333 942.667 128 1024C128 1106 138.667 1185 160 1261C181.333 1337 211.333 1408.33 250 1475C288.667 1541.67 335.667 1602.33 391 1657C446.333 1711.67 506.667 1758.33 572 1797C637.333 1835.67 708.667 1866 786 1888C863.333 1910 942.667 1920.67 1024 1920ZM1621 1040L1669 896H1744L1659 1152H1584L1536 1008L1488 1152H1413L1328 896H1403L1451 1040L1499 896H1573L1621 1040ZM1157 896H1232L1147 1152H1072L1024 1008L976 1152H901L816 896H891L939 1040L987 896H1061L1109 1040L1157 896ZM645 896H720L635 1152H560L512 1008L464 1152H389L304 896H379L427 1040L475 896H549L597 1040L645 896Z" fill="black"/>
</svg>
