<svg width="23" height="22" viewBox="0 0 23 22" fill="none" xmlns="http://www.w3.org/2000/svg">
<path d="M15.95 11C15.95 10.252 15.884 9.526 15.796 8.8H19.514C19.69 9.504 19.8 10.241 19.8 11C19.8 11.407 19.767 11.803 19.712 12.188C20.471 12.298 21.175 12.54 21.824 12.892C21.934 12.276 22 11.649 22 11C22 4.95 17.05 0 11 0C4.917 0 0 4.95 0 11C0 17.05 4.95 22 11 22C11.649 22 12.276 21.934 12.892 21.824C12.3695 20.8658 12.0971 19.7914 12.1 18.7C12.1 18.381 12.133 18.073 12.177 17.765C11.825 18.458 11.44 19.129 11 19.756C10.087 18.436 9.35 16.973 8.899 15.4H12.991C13.6517 14.252 14.6451 13.3314 15.84 12.76C15.906 12.177 15.95 11.594 15.95 11ZM11 2.233C11.913 3.553 12.65 5.027 13.101 6.6H8.899C9.35 5.027 10.087 3.553 11 2.233ZM2.486 13.2C2.31 12.496 2.2 11.759 2.2 11C2.2 10.241 2.31 9.504 2.486 8.8H6.204C6.116 9.526 6.05 10.252 6.05 11C6.05 11.748 6.116 12.474 6.204 13.2H2.486ZM3.388 15.4H6.6C6.985 16.775 7.48 18.095 8.14 19.316C6.13649 18.6248 4.44933 17.2345 3.388 15.4ZM6.6 6.6H3.388C4.44274 4.75994 6.13227 3.36764 8.14 2.684C7.48 3.905 6.985 5.225 6.6 6.6ZM13.574 13.2H8.426C8.316 12.474 8.25 11.748 8.25 11C8.25 10.252 8.316 9.515 8.426 8.8H13.574C13.673 9.515 13.75 10.252 13.75 11C13.75 11.748 13.673 12.474 13.574 13.2ZM13.849 2.684C15.873 3.377 17.556 4.774 18.612 6.6H15.367C15.0227 5.2376 14.5129 3.92249 13.849 2.684ZM22.55 16.775L17.325 22L14.3 18.7L15.576 17.424L17.325 19.173L21.274 15.224L22.55 16.775Z" fill="#414141"/>
</svg>
