<svg width="216" height="168" viewBox="0 0 216 168" fill="none" xmlns="http://www.w3.org/2000/svg">
<path d="M142.22 80.6702L94.22 48.6702C93.6175 48.2682 92.9171 48.0373 92.1936 48.0023C91.4701 47.9672 90.7506 48.1293 90.1121 48.4712C89.4735 48.8131 88.9397 49.3219 88.5677 49.9435C88.1958 50.565 87.9995 51.2759 88 52.0002V116C87.9992 116.725 88.195 117.435 88.5666 118.057C88.9382 118.679 89.4717 119.188 90.11 119.53C90.7489 119.872 91.4688 120.034 92.1927 119.999C92.9166 119.964 93.6173 119.733 94.22 119.33L142.22 87.3302C142.769 86.9651 143.219 86.47 143.53 85.8891C143.841 85.3081 144.004 84.6593 144.004 84.0002C144.004 83.3411 143.841 82.6923 143.53 82.1113C143.219 81.5304 142.769 81.0353 142.22 80.6702ZM96 108.53V59.4702L132.79 84.0002L96 108.53ZM210.46 26.5302C209.678 23.4572 208.177 20.6142 206.08 18.2356C203.983 15.857 201.351 14.0111 198.4 12.8502C164.6 -0.209798 110.27 0.000203868 108 0.000203868C105.73 0.000203868 51.4 -0.209798 17.6 12.8502C14.6504 14.0102 12.0188 15.8545 9.92198 18.2313C7.82517 20.608 6.32324 23.449 5.54 26.5202C3 36.2702 0 54.1602 0 84.0002C0 113.84 3 131.73 5.54 141.48C6.32324 144.551 7.82517 147.392 9.92198 149.769C12.0188 152.146 14.6504 153.99 17.6 155.15C51.4 168.21 105.73 168 108 168H108.71C115.6 168 166.29 167.57 198.43 155.15C201.38 153.99 204.011 152.146 206.108 149.769C208.205 147.392 209.707 144.551 210.49 141.48C213 131.72 216 113.84 216 84.0002C216 54.1602 213 36.2702 210.46 26.5202V26.5302ZM202.72 139.53C202.255 141.373 201.359 143.08 200.106 144.509C198.852 145.938 197.277 147.049 195.51 147.75C163.14 160.19 108.57 160 108 160C107.43 160 52.89 160.19 20.52 147.69C18.753 146.989 17.1779 145.878 15.9244 144.449C14.6709 143.02 13.7748 141.313 13.31 139.47C10.87 130.17 8 113 8 84.0002C8 55.0002 10.87 37.8302 13.28 28.5302C13.7448 26.6869 14.6409 24.9804 15.8944 23.5513C17.1479 22.1222 18.723 21.0113 20.49 20.3102C52.86 7.8102 107.43 8.0002 108 8.0002C108.57 8.0002 163.11 7.8002 195.48 20.3102C197.247 21.0113 198.822 22.1222 200.076 23.5513C201.329 24.9804 202.225 26.6869 202.69 28.5302C205.13 37.8302 208 55.0002 208 84.0002C208 113 205.13 130.17 202.72 139.47V139.53Z" fill="black"/>
</svg>
