<svg width="221" height="172" viewBox="0 0 221 172" fill="none" xmlns="http://www.w3.org/2000/svg">
<path d="M145.33 81.0002L97.33 49.0002C96.4258 48.3969 95.3748 48.0506 94.2891 47.9983C93.2034 47.9459 92.1239 48.1894 91.1659 48.7028C90.2078 49.2163 89.4073 49.9803 88.8497 50.9133C88.2921 51.8463 87.9984 52.9133 88 54.0002V118C87.9984 119.087 88.2921 120.154 88.8497 121.087C89.4073 122.02 90.2078 122.784 91.1659 123.298C92.1239 123.811 93.2034 124.055 94.2891 124.002C95.3748 123.95 96.4258 123.603 97.33 123L145.33 91.0002C146.155 90.4529 146.832 89.7099 147.3 88.8375C147.768 87.9651 148.013 86.9903 148.013 86.0002C148.013 85.0101 147.768 84.0353 147.3 83.1629C146.832 82.2905 146.155 81.5475 145.33 81.0002ZM100 106.79V65.2102L131.18 86.0002L100 106.79ZM214.4 28.0002C213.532 24.6272 211.875 21.5086 209.566 18.9008C207.258 16.2931 204.363 14.2708 201.12 13.0002C167 -0.209801 112.27 0.000199401 110 0.000199401C107.73 0.000199401 53 -0.209801 18.84 13.0002C15.6046 14.276 12.7177 16.3006 10.4162 18.908C8.11469 21.5155 6.46416 24.6314 5.6 28.0002C3.05 37.8902 0 56.0002 0 86.0002C0 116 3.05 134.11 5.6 144C6.46818 147.373 8.12477 150.492 10.4335 153.1C12.7422 155.707 15.6371 157.73 18.88 159C53 172.21 107.72 172 110 172H110.71C117.62 172 168.71 171.56 201.16 159C204.403 157.73 207.298 155.707 209.606 153.1C211.915 150.492 213.572 147.373 214.44 144C216.99 134.13 220.04 116.07 220.04 86.0002C220.04 55.9302 217 37.8902 214.4 28.0002ZM202.78 141C202.395 142.537 201.65 143.961 200.607 145.153C199.564 146.346 198.252 147.274 196.78 147.86C164.78 160.19 110.58 160 110 160C109.42 160 55.29 160.2 23.25 147.83C21.7779 147.244 20.4663 146.316 19.4231 145.123C18.3799 143.931 17.6351 142.507 17.25 140.97C14.84 131.78 12 114.78 12 86.0002C12 57.2202 14.84 40.2202 17.22 31.0002C17.6051 29.4632 18.3499 28.0396 19.3931 26.8469C20.4363 25.6542 21.7479 24.7265 23.22 24.1402C54.06 12.2602 105.53 12.0002 109.76 12.0002H110C110.54 12.0002 164.71 11.8002 196.75 24.1702C198.222 24.7565 199.534 25.6842 200.577 26.8769C201.62 28.0696 202.365 29.4932 202.75 31.0302C205.13 40.2202 207.97 57.2202 207.97 86.0302C207.97 114.84 205.16 131.78 202.78 141Z" fill="black"/>
</svg>
