<svg width="46" height="50" viewBox="0 0 46 50" fill="none" xmlns="http://www.w3.org/2000/svg">
<path d="M16.5025 0C15.6285 0 15.006 0.536986 14.6142 1.07155C14.2227 1.60611 13.9782 2.17778 13.9782 2.84435C13.9782 3.51102 14.2059 4.09619 14.5758 4.68242C14.9459 5.26864 15.5361 5.93183 16.5026 5.93183H16.4813L17.1804 5.94681V18.8102C11.7266 25.7552 1.13312 39.2942 1.13312 39.2942L1.09074 39.3483L1.05647 39.4076C0.518746 40.3363 0 41.6272 0 43.1648C0 46.9109 3.10826 49.9999 6.8351 50H38.4238C42.1407 50 45.259 46.9512 45.259 43.1648C45.259 41.4466 44.5097 40.1467 44.0784 39.4058L44.0432 39.3451L28.0789 19.1765V5.94617C28.3527 5.93921 28.4017 5.93204 28.7469 5.93183H28.7562C29.7229 5.93183 30.3132 5.26843 30.6832 4.68242C30.803 4.49221 30.9014 4.30105 30.9885 4.10832L31.1361 3.96102H31.0503C31.1928 3.60549 31.2808 3.23984 31.2808 2.84424C31.2808 2.17789 31.0365 1.606 30.6448 1.07155C30.2532 0.536986 29.6305 0 28.7562 0H16.5024H16.5025ZM16.5025 1.97039H28.7565C28.7466 1.97039 28.8936 2.01499 29.0555 2.23609C29.2175 2.45708 29.3107 2.81514 29.3107 2.84445C29.3107 2.87355 29.2007 3.33958 29.0171 3.63059C28.834 3.92054 28.6563 3.96081 28.7561 3.96113C28.0353 3.96113 27.4784 3.9819 27.2482 3.99118V3.96935H17.0263V3.97252L16.5134 3.96144H16.5026C16.6051 3.96144 16.426 3.92169 16.2422 3.63069C16.0588 3.33969 15.9487 2.87366 15.9487 2.84445C15.9487 2.81535 16.0418 2.45729 16.2038 2.23609C16.3658 2.0152 16.5128 1.9706 16.5027 1.9706L16.5025 1.97039ZM19.1506 5.93964H26.1089V13.8547H26.1043V19.3898L26.109 19.3959V19.8622L42.4059 40.4512C42.8179 41.1616 43.2887 42.0433 43.2887 43.1648C43.2887 45.8703 41.065 48.0296 38.4241 48.0296H6.83542C4.20447 48.0294 1.9706 45.8136 1.9706 43.1648C1.9706 42.7898 2.01594 42.4306 2.09143 42.091L2.09723 42.0999C2.17277 41.7558 2.28167 41.4199 2.42239 41.0969L2.40405 41.1224C2.50196 40.8888 2.61357 40.6612 2.73828 40.4407C2.80871 40.3507 13.5752 26.5905 18.9404 19.7589L19.1508 19.4911V19.3693C19.1532 19.3662 19.1582 19.3601 19.1605 19.3569V13.8547H19.1508V5.93964H19.1506ZM21.1307 13.8547V20.0352L20.9208 20.3027C17.3258 24.8905 4.5172 41.3764 4.4242 41.4961C4.17326 41.9391 3.95185 42.5177 3.95185 43.1637C3.95185 44.7672 5.30881 46.1138 6.89331 46.1138H38.4182C40.0128 46.1138 41.3596 44.8079 41.3596 43.1637C41.3596 42.5018 41.083 41.975 40.811 41.5046L24.1336 20.0662V13.8546H21.1308L21.1307 13.8547ZM20.7039 26.4786C22.9196 26.4786 24.7368 28.2959 24.7368 30.5115C24.7368 32.7275 22.9196 34.5448 20.7039 34.5448C18.4881 34.5448 16.6707 32.7275 16.6707 30.5118C16.6707 28.296 18.4881 26.4786 20.7039 26.4786ZM20.7039 28.4492C19.5532 28.4492 18.6413 29.361 18.6413 30.5115C18.6413 31.6623 19.5533 32.5743 20.7039 32.5743C21.8546 32.5743 22.7665 31.6626 22.7665 30.5116C22.7665 29.3609 21.8545 28.449 20.7039 28.449V28.4492ZM14.3468 34.2289C16.5625 34.2289 18.3799 36.0463 18.3799 38.262C18.3799 40.4779 16.5625 42.2952 14.3468 42.2952C12.1311 42.2952 10.3137 40.4776 10.3137 38.2619C10.3137 36.0462 12.1311 34.2288 14.3468 34.2288V34.2289ZM24.5343 35.3581C27.1348 35.3581 29.264 37.4876 29.264 40.088C29.264 42.6885 27.1347 44.8176 24.5343 44.8176C21.934 44.8176 19.8045 42.6884 19.8045 40.088C19.8045 37.4876 21.934 35.3581 24.5343 35.3581ZM14.3468 36.1995C13.1962 36.1995 12.2843 37.1115 12.2843 38.262C12.2843 39.4127 13.1963 40.3247 14.3468 40.3247C15.4975 40.3247 16.4094 39.4128 16.4094 38.262C16.4094 37.1114 15.4974 36.1995 14.3468 36.1995ZM24.5343 37.3287C22.999 37.3287 21.7751 38.5526 21.7751 40.088C21.7751 41.6234 22.999 42.8472 24.5343 42.8472C26.0699 42.8472 27.2936 41.6236 27.2936 40.088C27.2936 38.5526 26.0698 37.3287 24.5343 37.3287Z" fill="#AD4C7D"/>
</svg>
