<svg width="87" height="84" viewBox="0 0 87 84" fill="none" xmlns="http://www.w3.org/2000/svg">
<path d="M43.0238 2.00001C33.2841 1.995 23.8608 5.45715 16.4411 11.7665C9.02137 18.0758 4.08986 26.8203 2.52962 36.4342C0.969385 46.048 2.88231 55.9033 7.92585 64.2353C12.9694 72.5673 20.8142 78.832 30.0555 81.9074C32.1152 82.2888 32.8589 81.0301 32.8589 80.0003V73.0394C21.4163 75.5186 19.0515 67.5469 19.0515 67.5469C18.2947 65.0247 16.6479 62.8629 14.4173 61.4633C10.6985 58.9269 14.7034 58.965 14.7034 58.965C16.0024 59.1468 17.2428 59.6227 18.3301 60.3564C19.4174 61.0901 20.3229 62.0622 20.9777 63.1988C24.6393 69.4731 30.5132 67.6614 32.9161 66.6125C33.1059 64.5291 34.0322 62.5817 35.5289 61.12C26.4129 60.0902 16.8393 56.5811 16.8393 40.8666C16.7789 36.79 18.2957 32.8476 21.0731 29.8627C19.8112 26.3279 19.9546 22.4435 21.4736 19.0113C21.4736 19.0113 24.9063 17.9052 32.7445 23.2069C39.4621 21.3761 46.5473 21.3761 53.2649 23.2069C61.103 17.9052 64.5358 19.0113 64.5358 19.0113C66.0432 22.4462 66.1864 26.3261 64.9363 29.8627C67.7084 32.8495 69.2186 36.7922 69.151 40.8666C69.151 56.6193 59.6155 60.0711 50.4424 61.101C51.4266 62.0982 52.1847 63.2957 52.6652 64.612C53.1456 65.9282 53.3371 67.3325 53.2267 68.7293V79.9812C53.2267 81.3353 53.9705 82.346 56.0492 81.8883C65.2811 78.8009 73.1134 72.5298 78.1451 64.1966C83.1768 55.8635 85.0796 46.012 83.5131 36.4044C81.9466 26.7968 77.0131 18.06 69.595 11.7567C62.1769 5.45345 52.7582 1.99499 43.0238 2.00001Z" stroke="black" stroke-width="4" stroke-linecap="round" stroke-linejoin="round"/>
</svg>
