<svg width="45" height="44" viewBox="0 0 45 44" fill="none" xmlns="http://www.w3.org/2000/svg">
<path d="M22.5111 1C17.4041 0.997379 12.4629 2.81278 8.57228 6.12113C4.6817 9.42948 2.09583 14.0147 1.27771 19.0558C0.45959 24.0969 1.46264 29.2646 4.10726 33.6335C6.75188 38.0025 10.8653 41.2874 15.7111 42.9C16.7911 43.1 17.1811 42.44 17.1811 41.9V38.25C11.1811 39.55 9.94109 35.37 9.94109 35.37C9.54422 34.0474 8.68075 32.9139 7.51109 32.18C5.56109 30.85 7.66109 30.87 7.66109 30.87C8.34225 30.9653 8.99266 31.2149 9.56279 31.5996C10.1329 31.9843 10.6078 32.494 10.9511 33.09C12.8711 36.38 15.9511 35.43 17.2111 34.88C17.3106 33.7876 17.7963 32.7664 18.5811 32C13.8011 31.46 8.7811 29.62 8.7811 21.38C8.74941 19.2424 9.54478 17.1751 11.0011 15.61C10.3395 13.7565 10.4146 11.7197 11.2111 9.92C11.2111 9.92 13.0111 9.34 17.1211 12.12C20.6435 11.16 24.3587 11.16 27.8811 12.12C31.9911 9.34 33.7911 9.92 33.7911 9.92C34.5815 11.7211 34.6566 13.7556 34.0011 15.61C35.4547 17.1761 36.2465 19.2436 36.2111 21.38C36.2111 29.64 31.2111 31.45 26.4011 31.99C26.9172 32.5129 27.3147 33.1408 27.5666 33.831C27.8186 34.5212 27.919 35.2576 27.8611 35.99V41.89C27.8611 42.6 28.2511 43.13 29.3411 42.89C34.1819 41.2711 38.2888 37.9828 40.9272 33.6132C43.5656 29.2437 44.5634 24.078 43.742 19.0402C42.9206 14.0024 40.3336 9.42116 36.4439 6.116C32.5542 2.81084 27.6154 0.997374 22.5111 1Z" stroke="black" stroke-width="1.2" stroke-linecap="round" stroke-linejoin="round"/>
</svg>
