<svg width="88" height="86" viewBox="0 0 88 86" fill="none" xmlns="http://www.w3.org/2000/svg">
<path d="M44.0238 3.00001C34.2841 2.995 24.8608 6.45715 17.4411 12.7665C10.0214 19.0758 5.08986 27.8203 3.52962 37.4342C1.96939 47.048 3.88231 56.9033 8.92585 65.2353C13.9694 73.5673 21.8142 79.832 31.0555 82.9074C33.1152 83.2888 33.8589 82.0301 33.8589 81.0003V74.0394C22.4163 76.5186 20.0515 68.5469 20.0515 68.5469C19.2947 66.0247 17.6479 63.8629 15.4173 62.4633C11.6985 59.9269 15.7034 59.965 15.7034 59.965C17.0024 60.1468 18.2428 60.6227 19.3301 61.3564C20.4174 62.0901 21.3229 63.0622 21.9777 64.1988C25.6393 70.4731 31.5132 68.6614 33.9161 67.6125C34.1059 65.5291 35.0322 63.5817 36.5289 62.12C27.4129 61.0902 17.8393 57.5811 17.8393 41.8666C17.7789 37.79 19.2957 33.8476 22.0731 30.8627C20.8112 27.3279 20.9546 23.4435 22.4736 20.0113C22.4736 20.0113 25.9063 18.9052 33.7445 24.2069C40.4621 22.3761 47.5473 22.3761 54.2649 24.2069C62.103 18.9052 65.5358 20.0113 65.5358 20.0113C67.0432 23.4462 67.1864 27.3261 65.9363 30.8627C68.7084 33.8495 70.2186 37.7922 70.151 41.8666C70.151 57.6193 60.6155 61.0711 51.4424 62.101C52.4266 63.0982 53.1847 64.2957 53.6652 65.612C54.1456 66.9282 54.3371 68.3325 54.2267 69.7293V80.9812C54.2267 82.3353 54.9705 83.346 57.0492 82.8883C66.2811 79.8009 74.1134 73.5298 79.1451 65.1966C84.1768 56.8635 86.0796 47.012 84.5131 37.4044C82.9466 27.7968 78.0131 19.06 70.595 12.7567C63.1769 6.45345 53.7582 2.99499 44.0238 3.00001Z" stroke="black" stroke-width="4.5" stroke-linecap="round" stroke-linejoin="round"/>
</svg>
