<svg width="162" height="37" viewBox="0 0 162 37" fill="none" xmlns="http://www.w3.org/2000/svg">
<path d="M11.5 37L0.75 0.849998H5.85L12.45 22.95C12.7167 23.8833 12.9667 24.8667 13.2 25.9C13.4333 26.9333 13.6833 28.1333 13.95 29.5C14.25 28.0333 14.5333 26.8167 14.8 25.85C15.1 24.8833 15.3833 23.9167 15.65 22.95L22.5 0.849998H27.8L34.6 22.95C34.9 23.9167 35.1833 24.9167 35.45 25.95C35.7167 26.9833 35.9833 28.1667 36.25 29.5C36.5833 27.9667 36.8667 26.7 37.1 25.7C37.3667 24.7 37.6167 23.8 37.85 23L44.5 0.849998H49.5L38.6 37H33.9L25.15 8.4L16.3 37H11.5ZM67.7441 37L56.9941 0.849998H62.0941L68.6941 22.95C68.9608 23.8833 69.2108 24.8667 69.4441 25.9C69.6775 26.9333 69.9275 28.1333 70.1941 29.5C70.4941 28.0333 70.7775 26.8167 71.0441 25.85C71.3441 24.8833 71.6275 23.9167 71.8941 22.95L78.7441 0.849998H84.0441L90.8441 22.95C91.1441 23.9167 91.4275 24.9167 91.6941 25.95C91.9608 26.9833 92.2275 28.1667 92.4941 29.5C92.8275 27.9667 93.1108 26.7 93.3441 25.7C93.6108 24.7 93.8608 23.8 94.0941 23L100.744 0.849998H105.744L94.8441 37H90.1441L81.3941 8.4L72.5441 37H67.7441ZM123.988 37L113.238 0.849998H118.338L124.938 22.95C125.205 23.8833 125.455 24.8667 125.688 25.9C125.922 26.9333 126.172 28.1333 126.438 29.5C126.738 28.0333 127.022 26.8167 127.288 25.85C127.588 24.8833 127.872 23.9167 128.138 22.95L134.988 0.849998H140.288L147.088 22.95C147.388 23.9167 147.672 24.9167 147.938 25.95C148.205 26.9833 148.472 28.1667 148.738 29.5C149.072 27.9667 149.355 26.7 149.588 25.7C149.855 24.7 150.105 23.8 150.338 23L156.988 0.849998H161.988L151.088 37H146.388L137.638 8.4L128.788 37H123.988Z" fill="black"/>
</svg>
