<svg width="251" height="200" viewBox="0 0 251 200" fill="none" xmlns="http://www.w3.org/2000/svg">
<path d="M55.5 119L44.75 82.85H49.85L56.45 104.95C56.7167 105.883 56.9667 106.867 57.2 107.9C57.4333 108.933 57.6833 110.133 57.95 111.5C58.25 110.033 58.5333 108.817 58.8 107.85C59.1 106.883 59.3833 105.917 59.65 104.95L66.5 82.85H71.8L78.6 104.95C78.9 105.917 79.1833 106.917 79.45 107.95C79.7167 108.983 79.9833 110.167 80.25 111.5C80.5833 109.967 80.8667 108.7 81.1 107.7C81.3667 106.7 81.6167 105.8 81.85 105L88.5 82.85H93.5L82.6 119H77.9L69.15 90.4L60.3 119H55.5ZM111.744 119L100.994 82.85H106.094L112.694 104.95C112.961 105.883 113.211 106.867 113.444 107.9C113.677 108.933 113.927 110.133 114.194 111.5C114.494 110.033 114.777 108.817 115.044 107.85C115.344 106.883 115.627 105.917 115.894 104.95L122.744 82.85H128.044L134.844 104.95C135.144 105.917 135.427 106.917 135.694 107.95C135.961 108.983 136.227 110.167 136.494 111.5C136.827 109.967 137.111 108.7 137.344 107.7C137.611 106.7 137.861 105.8 138.094 105L144.744 82.85H149.744L138.844 119H134.144L125.394 90.4L116.544 119H111.744ZM167.988 119L157.238 82.85H162.338L168.938 104.95C169.205 105.883 169.455 106.867 169.688 107.9C169.922 108.933 170.172 110.133 170.438 111.5C170.738 110.033 171.022 108.817 171.288 107.85C171.588 106.883 171.872 105.917 172.138 104.95L178.988 82.85H184.288L191.088 104.95C191.388 105.917 191.672 106.917 191.938 107.95C192.205 108.983 192.472 110.167 192.738 111.5C193.072 109.967 193.355 108.7 193.588 107.7C193.855 106.7 194.105 105.8 194.338 105L200.988 82.85H205.988L195.088 119H190.388L181.638 90.4L172.788 119H167.988Z" fill="black"/>
</svg>
