<svg width="251" height="142" viewBox="0 0 251 142" fill="none" xmlns="http://www.w3.org/2000/svg">
<path d="M55.5 90L44.75 53.85H49.85L56.45 75.95C56.7167 76.8833 56.9667 77.8667 57.2 78.9C57.4333 79.9333 57.6833 81.1333 57.95 82.5C58.25 81.0333 58.5333 79.8167 58.8 78.85C59.1 77.8833 59.3833 76.9167 59.65 75.95L66.5 53.85H71.8L78.6 75.95C78.9 76.9167 79.1833 77.9167 79.45 78.95C79.7167 79.9833 79.9833 81.1667 80.25 82.5C80.5833 80.9667 80.8667 79.7 81.1 78.7C81.3667 77.7 81.6167 76.8 81.85 76L88.5 53.85H93.5L82.6 90H77.9L69.15 61.4L60.3 90H55.5ZM111.744 90L100.994 53.85H106.094L112.694 75.95C112.961 76.8833 113.211 77.8667 113.444 78.9C113.677 79.9333 113.927 81.1333 114.194 82.5C114.494 81.0333 114.777 79.8167 115.044 78.85C115.344 77.8833 115.627 76.9167 115.894 75.95L122.744 53.85H128.044L134.844 75.95C135.144 76.9167 135.427 77.9167 135.694 78.95C135.961 79.9833 136.227 81.1667 136.494 82.5C136.827 80.9667 137.111 79.7 137.344 78.7C137.611 77.7 137.861 76.8 138.094 76L144.744 53.85H149.744L138.844 90H134.144L125.394 61.4L116.544 90H111.744ZM167.988 90L157.238 53.85H162.338L168.938 75.95C169.205 76.8833 169.455 77.8667 169.688 78.9C169.922 79.9333 170.172 81.1333 170.438 82.5C170.738 81.0333 171.022 79.8167 171.288 78.85C171.588 77.8833 171.872 76.9167 172.138 75.95L178.988 53.85H184.288L191.088 75.95C191.388 76.9167 191.672 77.9167 191.938 78.95C192.205 79.9833 192.472 81.1667 192.738 82.5C193.072 80.9667 193.355 79.7 193.588 78.7C193.855 77.7 194.105 76.8 194.338 76L200.988 53.85H205.988L195.088 90H190.388L181.638 61.4L172.788 90H167.988Z" fill="black"/>
</svg>
