<svg width="251" height="93" viewBox="0 0 251 93" fill="none" xmlns="http://www.w3.org/2000/svg">
<path d="M55.5 66L44.75 29.85H49.85L56.45 51.95C56.7167 52.8833 56.9667 53.8667 57.2 54.9C57.4333 55.9333 57.6833 57.1333 57.95 58.5C58.25 57.0333 58.5333 55.8167 58.8 54.85C59.1 53.8833 59.3833 52.9167 59.65 51.95L66.5 29.85H71.8L78.6 51.95C78.9 52.9167 79.1833 53.9167 79.45 54.95C79.7167 55.9833 79.9833 57.1667 80.25 58.5C80.5833 56.9667 80.8667 55.7 81.1 54.7C81.3667 53.7 81.6167 52.8 81.85 52L88.5 29.85H93.5L82.6 66H77.9L69.15 37.4L60.3 66H55.5ZM111.744 66L100.994 29.85H106.094L112.694 51.95C112.961 52.8833 113.211 53.8667 113.444 54.9C113.677 55.9333 113.927 57.1333 114.194 58.5C114.494 57.0333 114.777 55.8167 115.044 54.85C115.344 53.8833 115.627 52.9167 115.894 51.95L122.744 29.85H128.044L134.844 51.95C135.144 52.9167 135.427 53.9167 135.694 54.95C135.961 55.9833 136.227 57.1667 136.494 58.5C136.827 56.9667 137.111 55.7 137.344 54.7C137.611 53.7 137.861 52.8 138.094 52L144.744 29.85H149.744L138.844 66H134.144L125.394 37.4L116.544 66H111.744ZM167.988 66L157.238 29.85H162.338L168.938 51.95C169.205 52.8833 169.455 53.8667 169.688 54.9C169.922 55.9333 170.172 57.1333 170.438 58.5C170.738 57.0333 171.022 55.8167 171.288 54.85C171.588 53.8833 171.872 52.9167 172.138 51.95L178.988 29.85H184.288L191.088 51.95C191.388 52.9167 191.672 53.9167 191.938 54.95C192.205 55.9833 192.472 57.1667 192.738 58.5C193.072 56.9667 193.355 55.7 193.588 54.7C193.855 53.7 194.105 52.8 194.338 52L200.988 29.85H205.988L195.088 66H190.388L181.638 37.4L172.788 66H167.988Z" fill="black"/>
</svg>
