<svg width="103" height="80" viewBox="0 0 103 80" fill="none" xmlns="http://www.w3.org/2000/svg">
<path d="M67.7236 38.4143L44.8666 23.1762C44.5796 22.9848 44.2461 22.8749 43.9016 22.8582C43.5571 22.8415 43.2145 22.9187 42.9104 23.0815C42.6063 23.2443 42.3521 23.4866 42.175 23.7825C41.9979 24.0785 41.9044 24.417 41.9047 24.7619V55.2381C41.9043 55.583 41.9975 55.9215 42.1745 56.2175C42.3514 56.5136 42.6054 56.756 42.9094 56.919C43.2137 57.0819 43.5565 57.1591 43.9012 57.1423C44.2459 57.1256 44.5796 57.0155 44.8666 56.8238L67.7236 41.5857C67.9849 41.4118 68.1992 41.1761 68.3474 40.8995C68.4956 40.6228 68.5731 40.3138 68.5731 40C68.5731 39.6862 68.4956 39.3772 68.3474 39.1005C68.1992 38.8239 67.9849 38.5882 67.7236 38.4143ZM45.7142 51.6809V28.3191L63.2332 40L45.7142 51.6809ZM100.219 12.6334C99.8465 11.1701 99.1316 9.81625 98.1331 8.6836C97.1346 7.55096 95.8811 6.67196 94.476 6.11913C78.3808 -0.0999036 52.5094 9.70797e-05 51.4284 9.70797e-05C50.3475 9.70797e-05 24.4761 -0.0999036 8.38093 6.11913C6.97638 6.6715 5.72322 7.54977 4.72474 8.68154C3.72626 9.81331 3.01106 11.1662 2.63809 12.6286C1.42857 17.2715 0 25.7905 0 40C0 54.2095 1.42857 62.7285 2.63809 67.3714C3.01106 68.8338 3.72626 70.1867 4.72474 71.3185C5.72322 72.4502 6.97638 73.3285 8.38093 73.8809C24.4761 80.0999 50.3475 79.9999 51.4284 79.9999H51.7665C55.0475 79.9999 79.1855 79.7951 94.4902 73.8809C95.8948 73.3285 97.148 72.4502 98.1464 71.3185C99.1449 70.1867 99.8601 68.8338 100.233 67.3714C101.428 62.7237 102.857 54.2095 102.857 40C102.857 25.7905 101.428 17.2715 100.219 12.6286V12.6334ZM96.5331 66.4428C96.3118 67.3205 95.8851 68.1332 95.2881 68.8137C94.6912 69.4942 93.9412 70.0232 93.0998 70.3571C77.6855 76.2809 51.6999 76.1904 51.4284 76.1904C51.157 76.1904 25.1857 76.2809 9.7714 70.3285C8.92999 69.9946 8.17994 69.4657 7.58302 68.7851C6.98611 68.1046 6.55941 67.292 6.33808 66.4142C5.17618 61.9857 3.80951 53.8095 3.80951 40C3.80951 26.1905 5.17618 18.0143 6.32379 13.5858C6.54512 12.708 6.97182 11.8954 7.56874 11.2149C8.16565 10.5343 8.91571 10.0054 9.75712 9.6715C25.1714 3.71913 51.157 3.80961 51.4284 3.80961C51.6999 3.80961 77.6712 3.71437 93.0855 9.6715C93.9269 10.0054 94.6769 10.5343 95.2739 11.2149C95.8708 11.8954 96.2975 12.708 96.5188 13.5858C97.6807 18.0143 99.0474 26.1905 99.0474 40C99.0474 53.8095 97.6807 61.9857 96.5331 66.4142V66.4428Z" fill="black"/>
</svg>
