<svg width="31" height="22" viewBox="0 0 31 22" fill="none" xmlns="http://www.w3.org/2000/svg">
<path d="M12.4 15.7143L20.4445 11L12.4 6.28571V15.7143ZM30.318 3.41C30.5195 4.14857 30.659 5.13857 30.752 6.39571C30.8605 7.65286 30.907 8.73714 30.907 9.68L31 11C31 14.4414 30.752 16.9714 30.318 18.59C29.9305 20.0043 29.0315 20.9157 27.6365 21.3086C26.908 21.5129 25.575 21.6543 23.529 21.7486C21.514 21.8586 19.6695 21.9057 17.9645 21.9057L15.5 22C9.0055 22 4.96 21.7486 3.3635 21.3086C1.9685 20.9157 1.0695 20.0043 0.682 18.59C0.4805 17.8514 0.341 16.8614 0.248 15.6043C0.1395 14.3471 0.0929999 13.2629 0.0929999 12.32L0 11C0 7.55857 0.248 5.02857 0.682 3.41C1.0695 1.99571 1.9685 1.08429 3.3635 0.691429C4.092 0.487143 5.425 0.345714 7.471 0.251428C9.486 0.141428 11.3305 0.0942856 13.0355 0.0942856L15.5 0C21.9945 0 26.04 0.251429 27.6365 0.691429C29.0315 1.08429 29.9305 1.99571 30.318 3.41Z" fill="black"/>
</svg>
