<svg width="18" height="17" viewBox="0 0 18 17" fill="none" xmlns="http://www.w3.org/2000/svg">
<path d="M3.62264 1.81223C3.6224 2.29262 3.43134 2.75324 3.09148 3.09276C2.75162 3.43228 2.29081 3.62288 1.81042 3.62264C1.33002 3.6224 0.869402 3.43134 0.529883 3.09148C0.190365 2.75162 -0.000239969 2.29081 2.26742e-07 1.81042C0.000240423 1.33002 0.191306 0.869402 0.531164 0.529883C0.871023 0.190365 1.33183 -0.000239969 1.81223 2.26742e-07C2.29262 0.000240423 2.75324 0.191306 3.09276 0.531164C3.43228 0.871022 3.62288 1.33183 3.62264 1.81223ZM3.67698 4.96392H0.0543398V16.3028H3.67698V4.96392ZM9.40075 4.96392H5.79623V16.3028H9.36453V10.3526C9.36453 7.03789 13.6845 6.72996 13.6845 10.3526V16.3028H17.2619V9.1209C17.2619 3.53298 10.8679 3.74128 9.36453 6.48543L9.40075 4.96392Z" fill="black" fill-opacity="0.8"/>
</svg>
