<svg width="23" height="13" viewBox="0 0 23 13" fill="none" xmlns="http://www.w3.org/2000/svg">
<path d="M12.7712 6.36793C12.7712 9.88444 9.91274 12.7359 6.38491 12.7359C5.54754 12.737 4.71816 12.5731 3.94411 12.2537C3.17006 11.9343 2.4665 11.4656 1.87361 10.8743C1.28072 10.2829 0.810098 9.58063 0.488623 8.80743C0.167149 8.03424 0.00111425 7.2053 0 6.36793C0 2.85001 2.85849 7.70361e-06 6.38491 7.70361e-06C7.22239 -0.00129405 8.05192 0.162395 8.82614 0.481726C9.60035 0.801057 10.3041 1.26977 10.8971 1.86111C11.4902 2.45245 11.9609 3.15481 12.2825 3.9281C12.604 4.70139 12.7701 5.53045 12.7712 6.36793ZM19.7759 6.36793C19.7759 9.67925 18.3467 12.3623 16.5835 12.3623C14.8203 12.3623 13.391 9.67784 13.391 6.36793C13.391 3.05661 14.8203 0.373593 16.5835 0.373593C18.3467 0.373593 19.7759 3.05803 19.7759 6.36793ZM22.6415 6.36793C22.6415 9.33397 22.1392 11.7382 21.5179 11.7382C20.8981 11.7382 20.3958 9.33255 20.3958 6.36793C20.3958 3.40189 20.8981 0.997649 21.5193 0.997649C22.1392 0.997649 22.6415 3.40189 22.6415 6.36793Z" fill="black" fill-opacity="0.8"/>
</svg>
