<svg width="19" height="16" viewBox="0 0 19 16" fill="none" xmlns="http://www.w3.org/2000/svg">
<path d="M18.9464 1.81132C18.2491 2.1283 17.4974 2.3366 16.7185 2.43623C17.5155 1.95623 18.1313 1.19547 18.4211 0.280755C17.6694 0.733585 16.8362 1.05057 15.9577 1.2317C15.2423 0.45283 14.237 0 13.0958 0C10.9675 0 9.22868 1.73887 9.22868 3.88528C9.22868 4.19321 9.26491 4.49208 9.3283 4.77283C6.10415 4.60981 3.23321 3.06113 1.32226 0.715472C0.98717 1.28604 0.796981 1.95623 0.796981 2.66264C0.796981 4.01208 1.47623 5.20755 2.52679 5.88679C1.88377 5.88679 1.28604 5.70566 0.760755 5.43396V5.46113C0.760755 7.34491 2.10113 8.92075 3.87623 9.27396C3.30632 9.42992 2.70801 9.45163 2.1283 9.33736C2.37429 10.1094 2.85603 10.785 3.50583 11.2691C4.15562 11.7532 4.94078 12.0215 5.75094 12.0362C4.37763 13.1234 2.67532 13.7111 0.923774 13.7026C0.615849 13.7026 0.307925 13.6845 0 13.6483C1.72075 14.7532 3.76755 15.3962 5.95924 15.3962C13.0958 15.3962 17.0174 9.47321 17.0174 4.33811C17.0174 4.16604 17.0174 4.00302 17.0083 3.83094C17.7691 3.28755 18.4211 2.59925 18.9464 1.81132Z" fill="black" fill-opacity="0.8"/>
</svg>
