<svg width="50" height="50" viewBox="0 0 50 50" fill="none" xmlns="http://www.w3.org/2000/svg">
<rect width="50" height="50" rx="5" fill="#AD4C7D"/>
<path d="M36.0417 16.5549C35.9543 16.4846 35.8494 16.4395 35.7382 16.4243C35.6271 16.4091 35.5139 16.4244 35.4108 16.4686L25.3696 20.8167C24.933 21.0069 24.3863 21.0973 23.825 21.0973C23.0422 21.1004 22.2325 20.9185 21.6681 20.6711C21.4961 20.5987 21.3323 20.5081 21.1795 20.4009C21.2211 20.3801 21.2731 20.3572 21.3302 20.3344L30.4629 16.3802L31.8246 16.9623V15.2607C31.8267 15.1394 31.8013 15.0192 31.7504 14.909C31.6994 14.7988 31.6243 14.7016 31.5305 14.6246C31.4434 14.5544 31.3388 14.5093 31.228 14.4941C31.1172 14.4789 31.0044 14.4942 30.9016 14.5383L20.8604 18.8864C20.5506 19.0111 20.2845 19.165 20.06 19.3884C19.8 19.6449 19.6524 19.9941 19.6494 20.3593C19.6494 20.3697 19.6526 20.3874 19.6526 20.3874V35.6986L19.6505 35.7194C19.6505 35.7236 19.6536 35.7257 19.6536 35.7298V35.7464H19.6557C19.6765 36.2818 19.9467 36.6227 20.2045 36.8639C21.0153 37.579 22.377 37.9792 23.826 38C24.512 38 25.2085 37.8961 25.8529 37.6196L35.8973 33.2704C36.1623 33.1561 36.3359 32.8723 36.3359 32.5511V17.191C36.3375 17.0697 36.3119 16.9497 36.261 16.8396C36.2101 16.7295 36.1352 16.6322 36.0417 16.5549ZM29.673 13.6444C29.6553 13.4157 29.5607 13.1974 29.3923 13.0664C29.3048 12.9962 29.1999 12.9511 29.0888 12.9359C28.9776 12.9207 28.8645 12.936 28.7614 12.9802L18.7202 17.3262C18.2836 17.5153 17.7358 17.6068 17.1755 17.6068C16.3928 17.6089 15.5831 17.427 15.0186 17.1785C14.8465 17.1073 14.6826 17.0174 14.5301 16.9104C14.5717 16.8896 14.6236 16.8667 14.6808 16.8438L23.8146 12.8897L25.1762 13.4718V11.7723C25.1781 11.6509 25.1525 11.5306 25.1014 11.4205C25.0503 11.3103 24.975 11.2131 24.881 11.1362C24.7937 11.066 24.689 11.0209 24.578 11.0057C24.4671 10.9905 24.3541 11.0058 24.2511 11.0499L14.2099 15.399C13.9002 15.5237 13.6351 15.6765 13.4095 15.9011C13.1499 16.1577 13.0027 16.5068 13 16.8719C13 16.8844 13.0031 16.901 13.0031 16.901V32.2611H13.0052C13.026 32.7965 13.2962 33.1374 13.554 33.3786C14.3648 34.0937 15.7265 34.4929 17.1766 34.5136C17.5703 34.5113 17.9629 34.4688 18.348 34.3868V20.3863C18.3376 19.6587 18.6287 18.9602 19.1401 18.4571C19.4944 18.1134 19.9154 17.846 20.3771 17.6713L29.673 13.6444Z" fill="#FBFBFD"/>
</svg>
