<svg width="50" height="50" viewBox="0 0 50 50" fill="none" xmlns="http://www.w3.org/2000/svg">
<rect width="50" height="50" rx="5" fill="#FE5F55"/>
<path d="M31.1781 19.6154C31.1781 24.066 26.233 23.7638 26.233 26.8407V26.8573C26.233 27.2123 25.9453 27.5 25.5903 27.5H22.8922C22.5373 27.5 22.2495 27.2123 22.2495 26.8573V26.6758C22.2495 21.9231 26.5902 22.2253 26.5902 20C26.5902 19.0385 25.8759 18.4615 24.6946 18.4615C23.7336 18.4615 22.7515 18.8818 21.8587 19.7406C21.63 19.9607 21.2722 19.9746 21.0222 19.779L19.2478 18.3911C18.9487 18.1572 18.914 17.714 19.1784 17.4415C20.6598 15.9143 22.5849 15 25.1342 15C29.1726 15 31.1781 17.1704 31.1781 19.6154ZM26.7825 32.5C26.7825 33.8736 25.6836 35 24.2825 35C22.9089 35 21.7825 33.8736 21.7825 32.5C21.7825 31.1264 22.9089 30 24.2825 30C25.6836 30 26.7825 31.1264 26.7825 32.5Z" fill="#FBFBFD"/>
</svg>
