<svg width="70" height="70" viewBox="0 0 70 70" fill="none" xmlns="http://www.w3.org/2000/svg">
<path d="M35 0C15.6653 0 0 15.6653 0 35C0 54.3347 15.6653 70 35 70C54.3347 70 70 54.3347 70 35C70 15.6653 54.3347 0 35 0ZM12.4194 30.4839C12.4194 27.0544 14.3528 24.1048 17.1613 22.5806C17.0625 22.9476 16.9355 23.3145 16.9355 23.7097C16.9355 26.2077 18.9536 28.2258 21.4516 28.2258C23.9496 28.2258 25.9677 26.2077 25.9677 23.7097C25.9677 23.3145 25.8407 22.9476 25.7419 22.5806C28.5504 24.1048 30.4839 27.0544 30.4839 30.4839C30.4839 35.4657 26.4335 39.5161 21.4516 39.5161C16.4698 39.5161 12.4194 35.4657 12.4194 30.4839ZM44.0323 55.3226H25.9677C22.9758 55.3226 22.9758 50.8064 25.9677 50.8064H44.0323C47.0242 50.8064 47.0242 55.3226 44.0323 55.3226ZM48.5484 39.5161C43.5665 39.5161 39.5161 35.4657 39.5161 30.4839C39.5161 27.0544 41.4496 24.1048 44.2581 22.5806C44.1593 22.9476 44.0323 23.3145 44.0323 23.7097C44.0323 26.2077 46.0504 28.2258 48.5484 28.2258C51.0464 28.2258 53.0645 26.2077 53.0645 23.7097C53.0645 23.3145 52.9375 22.9476 52.8387 22.5806C55.6472 24.1048 57.5806 27.0544 57.5806 30.4839C57.5806 35.4657 53.5302 39.5161 48.5484 39.5161Z" fill="#20A39E"/>
</svg>
