<svg width="100" height="70" viewBox="0 0 100 70" fill="none" xmlns="http://www.w3.org/2000/svg">
<path d="M28.75 8.75C28.75 13.5781 24.8281 17.5 20 17.5C15.1719 17.5 11.25 13.5781 11.25 8.75C11.25 3.92188 15.1719 0 20 0C24.8281 0 28.75 3.92188 28.75 8.75ZM10 33.3906C8.4375 35.1406 7.5 37.4687 7.5 40C7.5 42.5313 8.4375 44.8594 10 46.6094V33.3906ZM32.5625 25.6875C27.9219 29.7969 25 35.8125 25 42.5C25 47.8594 26.875 52.7812 30 56.6406V60C30 62.7656 27.7656 65 25 65H15C12.2344 65 10 62.7656 10 60V55.8125C4.09375 53 0 46.9844 0 40C0 30.3281 7.82812 22.5 17.5 22.5H22.5C26.25 22.5 29.7187 23.6719 32.5625 25.6719V25.6875ZM70 60V56.6406C73.125 52.7812 75 47.8594 75 42.5C75 35.8125 72.0781 29.7969 67.4375 25.6719C70.2813 23.6719 73.75 22.5 77.5 22.5H82.5C92.1719 22.5 100 30.3281 100 40C100 46.9844 95.9062 53 90 55.8125V60C90 62.7656 87.7656 65 85 65H75C72.2344 65 70 62.7656 70 60ZM88.75 8.75C88.75 13.5781 84.8281 17.5 80 17.5C75.1719 17.5 71.25 13.5781 71.25 8.75C71.25 3.92188 75.1719 0 80 0C84.8281 0 88.75 3.92188 88.75 8.75ZM90 33.3906V46.625C91.5625 44.8594 92.5 42.5469 92.5 40.0156C92.5 37.4844 91.5625 35.1563 90 33.4063V33.3906ZM50 20C44.4844 20 40 15.5156 40 10C40 4.48438 44.4844 0 50 0C55.5156 0 60 4.48438 60 10C60 15.5156 55.5156 20 50 20ZM37.5 42.5C37.5 45.0313 38.4375 47.3437 40 49.1094V35.8906C38.4375 37.6563 37.5 39.9687 37.5 42.5ZM60 35.8906V49.125C61.5625 47.3594 62.5 45.0469 62.5 42.5156C62.5 39.9844 61.5625 37.6562 60 35.9062V35.8906ZM70 42.5C70 49.4844 65.9062 55.5 60 58.3125V65C60 67.7656 57.7656 70 55 70H45C42.2344 70 40 67.7656 40 65V58.3125C34.0938 55.5 30 49.4844 30 42.5C30 32.8281 37.8281 25 47.5 25H52.5C62.1719 25 70 32.8281 70 42.5Z" fill="white"/>
</svg>
