<svg width="46" height="50" viewBox="0 0 46 50" fill="none" xmlns="http://www.w3.org/2000/svg">
<path d="M7.53728 0.000104627C6.67656 0.000104627 5.80999 0.40314 4.91682 1.30206C4.02355 2.20099 3.15393 3.58157 2.41748 5.33241C0.944986 8.83411 0 13.7936 0 19.2718C0 24.7499 0.944986 29.7094 2.41758 33.2111C3.15404 34.9621 4.02375 36.3427 4.91703 37.2415C5.8103 38.1404 6.67677 38.5469 7.53728 38.5469V38.5371L17.417 38.5043C15.45 33.5427 14.6884 28.0927 14.9504 22.4614C15.2749 15.4865 12.9298 9.45374 10.7662 7.38371C10.1508 6.79454 9.61966 6.60485 9.12733 6.61804C8.635 6.63123 8.09441 6.86301 7.49813 7.45238C6.30577 8.63081 5.0952 11.2269 4.5343 15.0127C4.10719 17.8957 4.14487 21.1479 4.58978 23.8977C5.03511 26.6474 5.97214 28.8807 6.87337 29.6815C7.19109 29.9638 7.40412 30.0133 7.59957 29.9987C7.79533 29.984 8.05494 29.8797 8.37842 29.544C8.99993 28.8989 9.69598 27.4221 10.0272 25.252C10.0236 25.2554 10.0207 25.2587 10.0173 25.2619C10.1593 24.6231 10.243 23.8763 10.243 23.0734C10.243 20.7452 9.55392 18.8565 8.70556 18.8565C7.89771 18.8565 7.23924 20.5695 7.17779 22.7429C7.01815 22.0075 6.92592 21.1743 6.92592 20.2893C6.92592 17.3286 7.93487 14.9274 9.17978 14.9274C9.50221 14.9274 9.80872 15.0891 10.086 15.379C10.0885 15.3809 10.0904 15.3834 10.0927 15.3853C11.1641 16.3054 11.6154 17.8123 11.9116 19.5402C12.2173 21.3236 12.2581 23.3677 12.0031 25.2518C11.6548 27.826 10.9108 29.733 9.78506 30.9016C9.22217 31.4857 8.52152 31.8898 7.74372 31.9484C6.96591 32.0071 6.19093 31.6909 5.57466 31.1436C3.97591 29.723 3.14074 27.1806 2.66003 24.2116C2.17932 21.2426 2.1408 17.8356 2.60109 14.7278C3.20062 10.6828 4.41999 7.73995 6.12121 6.05861C6.97188 5.21799 7.99297 4.69059 9.07855 4.66181C10.1641 4.63291 11.2254 5.11645 12.1175 5.97036C15.055 8.78114 17.2498 15.1166 16.9037 22.553C16.5904 29.2871 17.7831 35.6344 20.8032 41.1411C21.8199 42.9288 23.0371 44.5949 24.4311 46.107C24.4411 46.1178 24.4507 46.129 24.4607 46.1398L27.9184 50L29.3742 48.6914L28.4813 47.6969L29.9044 46.4341L28.3537 44.6905C28.9831 44.479 29.6467 44.3124 30.3364 44.1702C30.451 44.2922 30.5901 44.4476 30.7614 44.6348C31.132 45.0395 31.6052 45.5617 32.0668 46.0774C32.9901 47.1089 33.8758 48.1122 33.8758 48.1122L35.3414 46.8168C35.3414 46.8168 34.4509 45.8128 33.5226 44.7754C33.2543 44.4757 32.9883 44.1815 32.7343 43.8988C32.7484 43.9067 32.7558 43.9103 32.7702 43.9185C33.3948 44.2676 34.1986 44.7193 34.9913 45.1681C36.5767 46.0655 38.1187 46.9446 38.1187 46.9446L39.0446 45.3188C39.9597 45.8375 40.8746 46.3565 41.7894 46.8759L42.7609 45.1748C42.7609 45.1748 41.2155 44.2944 39.6269 43.3951C39.1188 43.1076 38.6691 42.8539 38.2005 42.5903C38.6721 42.4306 39.134 42.2491 39.5844 42.0376L45.0507 42.2305L45.1163 40.274L42.0603 40.1662C36.8558 39.0701 32.9491 32.3829 32.7759 24.928C33.0281 23.1403 33.1653 21.2413 33.1653 19.2719C33.1653 13.9137 32.1509 9.07206 30.5613 5.60721C28.976 2.15158 26.8766 0.210311 24.869 0.0654278L7.53717 0.00994495V0L7.53728 0.000104627Z" fill="#AD4C7D"/>
</svg>
