<svg width="56" height="50" viewBox="0 0 56 50" fill="none" xmlns="http://www.w3.org/2000/svg">
<path d="M25.9819 0.000132278C25.4996 0.00106011 25.0174 0.0121052 24.5355 0.0332599C23.5001 0.21734 23.022 0.670669 22.7623 1.18955C22.4763 1.76164 22.4875 2.53144 22.8064 3.21596C23.1256 3.90083 23.7109 4.46071 24.5282 4.66981C25.3456 4.87891 26.4707 4.77084 27.9496 3.82553L29.1317 5.67573C27.2736 6.86339 25.4755 7.17669 23.9849 6.79525C22.4944 6.41382 21.3884 5.37112 20.8169 4.1447C20.2784 2.98924 20.1795 1.6336 20.6959 0.429732C15.6543 1.245 11.0893 3.17837 7.58282 5.89952C6.4304 7.15507 6.31763 8.61432 6.82276 9.61097C7.39016 10.73 8.72701 11.5469 11.4007 10.7011L12.0651 12.7937C8.70774 13.8556 5.94042 12.7246 4.86636 10.6057C4.6044 10.0892 4.4444 9.53014 4.38155 8.9537C3.81604 9.62471 3.3055 10.3232 2.8544 11.0499L2.8692 11.0569C1.85729 13.3613 1.83426 14.9574 2.23767 15.9946C2.64131 17.0319 3.487 17.6909 4.78919 18.0541C7.39333 18.7801 11.6103 17.9041 14.5798 15.6863C15.8508 14.7371 17.0557 12.435 17.1606 10.6497C17.2129 9.75687 17.0238 9.05156 16.6502 8.60117C16.2767 8.15078 15.6785 7.81374 14.4402 7.82655L14.4182 5.63144C16.1201 5.61382 17.5019 6.18991 18.3389 7.19901C19.1758 8.2081 19.4267 9.50759 19.3521 10.7782C19.2029 13.3195 17.8725 15.9672 15.8939 17.4448C12.3843 20.0661 7.74881 21.1576 4.20182 20.1688C2.5586 19.7106 1.10405 18.7137 0.354573 17.1697C-0.766827 22.5083 0.862409 27.4674 3.96311 30.8992C4.3684 31.348 4.79976 31.772 5.25179 32.1656C4.92827 31.2391 4.78002 30.2743 4.81479 29.3353C4.87706 27.6525 5.52927 26.0054 6.83768 24.8678C7.91068 23.9344 9.39296 23.3959 11.1657 23.3994C11.2839 23.3994 11.4047 23.4015 11.5255 23.4064C11.8015 23.4182 12.085 23.4421 12.3736 23.48L12.087 25.657C10.2558 25.4164 9.06732 25.8358 8.27661 26.5233C7.48602 27.211 7.04984 28.2401 7.00637 29.4161C6.91944 31.7684 8.42428 34.5152 11.6689 35.3119L11.6651 35.334C14.8595 35.9436 18.4241 35.3777 22.0028 33.1936C22.0049 33.1922 22.0078 33.1916 22.01 33.1901C22.7548 32.6673 23.156 32.1554 23.3537 31.7143C23.5869 31.1936 23.582 30.7402 23.416 30.2531C23.0842 29.2793 21.8959 28.2782 20.806 27.9992C19.0436 27.5481 17.9241 28.1679 17.3992 28.9061C16.8744 29.6438 16.8424 30.3686 17.6525 30.9983L16.3051 32.731C14.6385 31.4349 14.5322 29.1496 15.6114 27.6321C16.421 26.494 17.8416 25.7142 19.5543 25.6644C19.6265 25.6618 19.6987 25.6606 19.7709 25.6609C20.2767 25.6644 20.8035 25.7339 21.3494 25.8735C23.1708 26.3399 24.8548 27.6681 25.4938 29.5445C25.6644 30.0475 25.7391 30.578 25.7142 31.1086C27.6772 30.1056 29.7473 29.2149 31.8559 28.546C35.3985 26.9272 36.9343 24.0893 36.8744 21.6997C36.8139 19.2923 35.3253 17.2662 31.8964 16.9272L32.113 14.7429C36.4203 15.1689 38.9807 18.2492 39.066 21.6444C39.1156 23.6227 38.39 25.6812 36.9294 27.4335C38.8174 27.2221 40.6937 27.2579 42.5129 27.6247C42.1426 26.8644 41.9631 26.0414 41.9881 25.2237C42.0677 22.6351 44.2695 20.2202 47.7296 20.1834C47.966 20.1812 48.2024 20.1897 48.438 20.209L48.2618 22.397C45.3335 22.1623 44.2325 23.6993 44.1833 25.2934C44.135 26.8699 45.1872 28.6346 48.2033 28.8688C51.5278 28.8982 53.9111 27.0952 55.079 24.4159C56.6426 20.8287 55.9009 15.4507 50.9858 10.532C50.8927 10.4388 50.8004 10.3448 50.7068 10.253C50.6552 10.691 50.5428 11.1198 50.3729 11.5268C49.5212 13.5697 47.5262 14.9486 45.4537 15.3338C42.595 15.865 40.2508 14.7057 39.1689 12.9366C38.087 11.1678 38.371 8.66648 40.3178 7.34961L41.5477 9.17044C40.5007 9.87857 40.4576 10.8374 41.0411 11.7913C41.6246 12.7454 42.9406 13.5717 45.0535 13.1791C46.3816 12.9322 47.8606 11.8481 48.3462 10.6828C48.5894 10.1001 48.6364 9.52427 48.3942 8.86548C48.1974 8.33039 47.7848 7.71847 47.0174 7.07402L46.9954 7.05581C43.7865 4.63739 40.3772 2.89808 36.9221 1.75107C36.9242 1.75483 36.9274 1.75812 36.9295 1.762C37.7147 3.19752 37.773 4.82593 37.2893 6.26639C36.3222 9.14742 33.287 11.4174 29.5323 11.2919C28.7161 11.2649 27.9394 11.6584 27.2785 12.4263C26.6175 13.1943 26.1349 14.3192 26.0229 15.5174C25.7991 17.9139 26.8362 20.5554 30.8797 21.861L30.2036 23.9499C25.3774 22.3917 23.5276 18.5994 23.8342 15.3156C23.9877 13.6739 24.6219 12.1483 25.6147 10.9949C26.6076 9.84157 28.02 9.04451 29.6053 9.09702C32.4293 9.19123 34.5771 7.44253 35.2072 5.56542C35.5223 4.62705 35.4815 3.69325 35.0016 2.81596C34.5355 1.96405 33.6119 1.12165 31.9584 0.506912C29.9848 0.164147 27.985 -0.00542523 25.9819 0.000132278ZM37.8722 29.5961C32.9483 29.9967 27.6091 32.345 23.1552 35.0659C16.579 39.0832 9.65868 38.2063 4.74854 34.5631C6.68027 41.4757 13.5252 42.8788 20.6662 41.1304C21.3807 40.862 22.0829 40.3624 22.6816 39.7172C23.5107 38.8236 24.1113 37.665 24.3004 36.707L26.4554 37.1328C26.1681 38.5875 25.3889 40.0304 24.2931 41.2115C23.2418 42.3445 21.872 43.2496 20.288 43.4874C19.4932 45.2577 18.8391 46.974 18.5736 48.1753C18.1566 50.0619 20.2424 50.7861 21.1763 48.8837C23.4109 44.3324 26.5648 40.2811 30.5044 36.7878C33.5662 34.7728 36.1907 32.2882 37.8722 29.5961Z" fill="#AD4C7D"/>
</svg>
