<svg width="38" height="50" viewBox="0 0 38 50" fill="none" xmlns="http://www.w3.org/2000/svg">
<path d="M17.9627 9.43818C21.5724 9.43818 23.1513 11.8598 23.2789 15.7105L23.2869 16.2202V22.9213L30.9183 24.0593C31.9048 24.2063 32.8512 24.5565 33.6994 25.0884C34.5475 25.6203 35.2794 26.3226 35.8501 27.1521C36.4207 27.9816 36.8181 28.9207 37.0177 29.9118C37.2173 30.9029 37.2149 31.9249 37.0107 32.915L36.9044 33.3734L33.6402 45.3518C33.4173 46.1708 32.9805 46.9135 32.376 47.5015C31.7716 48.0896 31.0218 48.5012 30.2059 48.6929L29.8179 48.7657L21.6814 49.9522C20.7029 50.0945 19.7052 49.9169 18.833 49.4451C17.9607 48.9733 17.2593 48.2319 16.8304 47.3284L16.6709 46.9509L16.0941 45.4084C15.4418 43.6616 14.3668 42.1092 12.9682 40.8943L12.4286 40.4547L8.18624 37.2188C7.96425 37.0484 7.72762 36.8986 7.47919 36.7712L7.09908 36.5986L1.26455 34.2579C0.908194 34.1154 0.599852 33.8717 0.37641 33.5561C0.152968 33.2405 0.0238882 32.8662 0.004611 32.4781C-0.0910806 30.5312 1.30708 29.1181 3.78443 27.8615C5.6956 26.8907 8.37497 26.9716 11.9342 27.9775L12.6572 28.1932V16.1932C12.6572 12.0458 14.1935 9.43818 17.9627 9.43818ZM17.9627 2.09516e-06C20.4858 -0.00132839 22.97 0.631027 25.1935 1.84064C27.4171 3.05025 29.3109 4.7995 30.7059 6.93228C32.101 9.06506 32.9539 11.515 33.1885 14.0636C33.4232 16.6121 33.0322 19.1799 32.0507 21.5379L32.5105 21.6512C32.1147 21.5408 31.7126 21.4553 31.3064 21.395L27.9386 20.8934C28.9219 19.0186 29.3724 16.9034 29.2397 14.784C29.1071 12.6645 28.3966 10.6242 27.1875 8.89052C25.9784 7.15688 24.3182 5.79816 22.3923 4.96597C20.4663 4.13378 18.3503 3.86086 16.2803 4.17766C14.2104 4.49446 12.2679 5.38851 10.6696 6.76007C9.07139 8.13162 7.88022 9.92673 7.22905 11.9451C6.57787 13.9634 6.49231 16.1257 6.9819 18.1905C7.47149 20.2553 8.51699 22.1415 10.0017 23.6386L9.99907 24.7577C8.36699 24.4638 6.89441 24.391 5.55472 24.5635C3.9112 22.247 2.92983 19.5152 2.71873 16.669C2.50762 13.8229 3.07498 10.9728 4.35829 8.43287C5.64161 5.89289 7.59108 3.76155 9.99197 2.27363C12.3928 0.785707 15.152 -0.00105835 17.9654 2.09516e-06H17.9627Z" fill="#AD4C7D"/>
</svg>
