<svg width="50" height="50" viewBox="0 0 50 50" fill="none" xmlns="http://www.w3.org/2000/svg">
<path d="M25 0C11.1895 0 0 11.1895 0 25C0 38.8105 11.1895 50 25 50C38.8105 50 50 38.8105 50 25C50 11.1895 38.8105 0 25 0ZM8.87097 21.7742C8.87097 19.3246 10.252 17.2177 12.2581 16.129C12.1875 16.3911 12.0968 16.6532 12.0968 16.9355C12.0968 18.7198 13.5383 20.1613 15.3226 20.1613C17.1069 20.1613 18.5484 18.7198 18.5484 16.9355C18.5484 16.6532 18.4577 16.3911 18.3871 16.129C20.3931 17.2177 21.7742 19.3246 21.7742 21.7742C21.7742 25.3327 18.881 28.2258 15.3226 28.2258C11.7641 28.2258 8.87097 25.3327 8.87097 21.7742ZM31.4516 39.5161H18.5484C16.4113 39.5161 16.4113 36.2903 18.5484 36.2903H31.4516C33.5887 36.2903 33.5887 39.5161 31.4516 39.5161ZM34.6774 28.2258C31.119 28.2258 28.2258 25.3327 28.2258 21.7742C28.2258 19.3246 29.6069 17.2177 31.6129 16.129C31.5423 16.3911 31.4516 16.6532 31.4516 16.9355C31.4516 18.7198 32.8931 20.1613 34.6774 20.1613C36.4617 20.1613 37.9032 18.7198 37.9032 16.9355C37.9032 16.6532 37.8125 16.3911 37.7419 16.129C39.748 17.2177 41.129 19.3246 41.129 21.7742C41.129 25.3327 38.2359 28.2258 34.6774 28.2258Z" fill="#AD4C7D"/>
</svg>
