<svg width="50" height="50" viewBox="0 0 50 50" fill="none" xmlns="http://www.w3.org/2000/svg">
<rect width="50" height="50" rx="5" fill="white"/>
<path d="M32.0214 29.1108C32.0248 30.4862 31.7319 31.8462 31.1626 33.0983C30.5934 34.3504 29.7611 35.4652 28.7225 36.3668C28.0417 36.9652 28.508 38.0852 29.4145 37.9949C30.0207 37.9356 30.6203 37.8223 31.2062 37.6562C32.7794 37.2125 34.2096 36.3661 35.3554 35.2004C36.5013 34.0348 37.3231 32.5903 37.7397 31.0098C38.136 29.5747 38.1951 28.0674 37.9125 26.6056C37.6299 25.1439 37.0132 23.7673 36.1106 22.5833C35.2079 21.3993 34.0438 20.44 32.7091 19.7804C31.3744 19.1207 29.9053 18.7785 28.4165 18.7805C28.0223 18.7802 27.6283 18.8028 27.2367 18.8483C26.3403 18.9612 26.1134 20.159 26.9093 20.5892C29.9587 22.2285 32.0236 25.4269 32.0236 29.1108H32.0214ZM19.9242 31.948C18.5459 31.9523 17.1826 31.661 15.9264 31.0936C14.6702 30.5263 13.5503 29.6962 12.6422 28.6592C12.0416 27.9818 10.9183 28.4447 11.0097 29.3479C11.0687 29.9522 11.182 30.55 11.3484 31.134C12.2448 34.3211 14.8076 36.8083 18.0174 37.6437C24.4831 39.3282 30.2895 34.513 30.2895 28.3533C30.2895 27.9581 30.2669 27.563 30.2218 27.1791C30.1089 26.2849 28.9065 26.0591 28.4752 26.8517C27.6428 28.3941 26.4083 29.6823 24.9028 30.5795C23.3973 31.4768 21.6769 31.9497 19.9242 31.948ZM17.0746 19.8892C17.0715 18.5136 17.3648 17.1535 17.9344 15.9014C18.5041 14.6493 19.3368 13.5346 20.3758 12.6332C21.0566 12.0337 20.5903 10.9148 19.6838 11.0052C19.0744 11.0648 18.471 11.1743 17.8796 11.3326C16.3079 11.7785 14.8792 12.6257 13.7341 13.791C12.5889 14.9564 11.7668 16.3996 11.3484 17.9789C10.9521 19.414 10.893 20.9213 11.1756 22.3831C11.4582 23.8448 12.0749 25.2214 12.9776 26.4054C13.8802 27.5894 15.0443 28.5487 16.379 29.2084C17.7137 29.868 19.1828 30.2102 20.6716 30.2082C21.069 30.2082 21.4664 30.1856 21.8514 30.1405C22.7478 30.0276 22.9748 28.8286 22.1788 28.3995C20.6369 27.5768 19.3475 26.3503 18.4487 24.8513C17.5498 23.3523 17.0741 21.6371 17.0746 19.8892ZM29.1774 17.052C30.5558 17.0477 31.9191 17.339 33.1753 17.9064C34.4315 18.4737 35.5514 19.3038 36.4595 20.3408C37.0578 21.0182 38.1823 20.5553 38.0908 19.6521C38.0319 19.0474 37.9186 18.4492 37.7521 17.8649C36.8546 14.6778 34.2918 12.1917 31.0809 11.3551C24.6265 9.65939 18.8201 14.4745 18.8201 20.6343C18.8201 21.0295 18.8427 21.4246 18.8878 21.8096C19.0007 22.7026 20.2065 22.9284 20.6366 22.137C21.468 20.5975 22.7009 19.3119 24.2043 18.4167C25.7077 17.5216 27.4255 17.0504 29.1752 17.0532L29.1774 17.052Z" fill="#AD4C7D"/>
</svg>
